<?xml version="1.0" encoding="UTF-8" standalone="no"?>
<!-- Created with Inkscape (http://www.inkscape.org/) -->

<svg
   width="269.94574mm"
   height="241.53447mm"
   viewBox="0 0 269.94573 241.53447"
   version="1.1"
   id="svg5"
   xml:space="preserve"
   inkscape:version="1.3 (0e150ed6c4, 2023-07-21)"
   sodipodi:docname="icon.svg"
   inkscape:export-filename="horizontal-logo.png"
   inkscape:export-xdpi="96"
   inkscape:export-ydpi="96"
   xmlns:inkscape="http://www.inkscape.org/namespaces/inkscape"
   xmlns:sodipodi="http://sodipodi.sourceforge.net/DTD/sodipodi-0.dtd"
   xmlns:xlink="http://www.w3.org/1999/xlink"
   xmlns="http://www.w3.org/2000/svg"
   xmlns:svg="http://www.w3.org/2000/svg"><sodipodi:namedview
     id="namedview7"
     pagecolor="#ffffff"
     bordercolor="#000000"
     borderopacity="0.25"
     inkscape:showpageshadow="2"
     inkscape:pageopacity="0.0"
     inkscape:pagecheckerboard="0"
     inkscape:deskcolor="#d1d1d1"
     inkscape:document-units="mm"
     showgrid="false"
     inkscape:zoom="0.04"
     inkscape:cx="1762.5"
     inkscape:cy="2962.5"
     inkscape:window-width="787"
     inkscape:window-height="848"
     inkscape:window-x="0"
     inkscape:window-y="0"
     inkscape:window-maximized="1"
     inkscape:current-layer="g1"
     showguides="true" /><defs
     id="defs2"><linearGradient
       inkscape:collect="always"
       id="linearGradient17335"><stop
         style="stop-color:#15141c;stop-opacity:1;"
         offset="0"
         id="stop17331" /><stop
         style="stop-color:#aaa7c0;stop-opacity:1;"
         offset="0.99227226"
         id="stop17333" /></linearGradient><inkscape:path-effect
       effect="spiro"
       id="path-effect13239"
       is_visible="true"
       lpeversion="1" /><linearGradient
       inkscape:collect="always"
       xlink:href="#linearGradient17335"
       id="linearGradient17337"
       x1="100.80637"
       y1="81.00473"
       x2="100.64364"
       y2="121.51553"
       gradientUnits="userSpaceOnUse"
       gradientTransform="translate(-54.095209,28.188713)" /></defs><g
     inkscape:label="Layer 1"
     inkscape:groupmode="layer"
     id="layer1"
     transform="translate(464.99067,-395.70569)"><g
       id="g18664"
       inkscape:export-filename="kapture-logo-2.png"
       inkscape:export-xdpi="96"
       inkscape:export-ydpi="96"
       transform="matrix(5.962224,0,0,5.962224,-607.74476,-255.33012)"><g
         id="g1"><path
           id="path16033"
           style="color:#000000;fill:url(#linearGradient17337);fill-opacity:1;stroke-width:0.560854;stroke-linecap:round;-inkscape-stroke:none"
           d="m 32.809064,109.19345 c -3.310751,1.71174 -6.390106,4.95291 -7.89032,8.66214 -1.702984,4.21058 -1.416477,8.98374 2.792218,12.94666 a 0.28042723,0.28042723 0 0 1 0.0026,0.003 0.28042723,0.28042723 0 0 1 0.004,0.003 l 18.830874,18.8311 v 0.0649 l 0.0325,-0.0325 0.0325,0.0325 v -0.0649 l 18.83081,-18.8311 a 0.28042723,0.28042723 0 0 1 0.004,-0.003 0.28042723,0.28042723 0 0 1 0.003,-0.003 c 4.20869,-3.96291 4.4952,-8.73607 2.79222,-12.94665 -1.50022,-3.70923 -4.57957,-6.9504 -7.89032,-8.66214 3.0643,3.2563 4.85981,6.61631 5.00072,10.10259 0.15632,3.8677 -1.73565,7.83813 -6.05309,11.90617 a 0.28042723,0.28042723 0 0 1 -0.002,0.002 l -0.81669,0.81678 -11.90127,-11.90125 -11.901275,11.90125 -0.816739,-0.81674 a 0.28042723,0.28042723 0 0 1 -0.0015,-0.002 c -4.317286,-4.06805 -6.209259,-8.03848 -6.052938,-11.90617 0.140905,-3.48629 1.936419,-6.8463 5.000719,-10.1026 z m 13.771832,16.66172 c 0.0982,0.10151 0.19644,0.20432 0.29476,0.30866 a 0.28042786,0.28042722 0 0 1 0.002,0.002 l 8.73024,8.72994 -9.02703,9.02733 -9.027031,-9.02733 8.730251,-8.72994 a 0.28042786,0.28042722 0 0 1 0.002,-0.002 c 0.0983,-0.10434 0.19655,-0.20715 0.29475,-0.30866 z" /></g></g></g></svg>
