<?xml version="1.0" encoding="UTF-8" standalone="no"?>
<!-- Created with Inkscape (http://www.inkscape.org/) -->

<svg
   width="1293.1857mm"
   height="241.53447mm"
   viewBox="0 0 1293.1856 241.53447"
   version="1.1"
   id="svg5"
   xml:space="preserve"
   inkscape:version="1.3 (0e150ed6c4, 2023-07-21)"
   sodipodi:docname="horizontal-logo.svg"
   inkscape:export-filename="horizontal-logo.png"
   inkscape:export-xdpi="96"
   inkscape:export-ydpi="96"
   xmlns:inkscape="http://www.inkscape.org/namespaces/inkscape"
   xmlns:sodipodi="http://sodipodi.sourceforge.net/DTD/sodipodi-0.dtd"
   xmlns:xlink="http://www.w3.org/1999/xlink"
   xmlns="http://www.w3.org/2000/svg"
   xmlns:svg="http://www.w3.org/2000/svg"><sodipodi:namedview
     id="namedview7"
     pagecolor="#ffffff"
     bordercolor="#000000"
     borderopacity="0.25"
     inkscape:showpageshadow="2"
     inkscape:pageopacity="0.0"
     inkscape:pagecheckerboard="0"
     inkscape:deskcolor="#d1d1d1"
     inkscape:document-units="mm"
     showgrid="false"
     inkscape:zoom="0.04"
     inkscape:cx="3225"
     inkscape:cy="1575"
     inkscape:window-width="792"
     inkscape:window-height="443"
     inkscape:window-x="0"
     inkscape:window-y="0"
     inkscape:window-maximized="1"
     inkscape:current-layer="g18664"
     showguides="true" /><defs
     id="defs2"><linearGradient
       inkscape:collect="always"
       id="linearGradient17335"><stop
         style="stop-color:#15141c;stop-opacity:1;"
         offset="0"
         id="stop17331" /><stop
         style="stop-color:#aaa7c0;stop-opacity:1;"
         offset="0.99227226"
         id="stop17333" /></linearGradient><linearGradient
       inkscape:collect="always"
       id="linearGradient16686"><stop
         style="stop-color:#15141c;stop-opacity:1;"
         offset="0"
         id="stop16682" /><stop
         style="stop-color:#6b6489;stop-opacity:1;"
         offset="0.5"
         id="stop17043" /></linearGradient><inkscape:path-effect
       effect="spiro"
       id="path-effect13239"
       is_visible="true"
       lpeversion="1" /><linearGradient
       inkscape:collect="always"
       id="linearGradient12252"><stop
         style="stop-color:#30dfd0;stop-opacity:1;"
         offset="0"
         id="stop12248" /><stop
         style="stop-color:#d3f8f5;stop-opacity:1;"
         offset="1"
         id="stop12877" /></linearGradient><linearGradient
       inkscape:collect="always"
       id="linearGradient7058"><stop
         style="stop-color:#add3d5;stop-opacity:1;"
         offset="0"
         id="stop7054" /><stop
         style="stop-color:#faf9ff;stop-opacity:1;"
         offset="1"
         id="stop7056" /></linearGradient><linearGradient
       inkscape:collect="always"
       id="linearGradient5737"><stop
         style="stop-color:#c5fafa;stop-opacity:1;"
         offset="0"
         id="stop5733" /><stop
         style="stop-color:#f5f8fd;stop-opacity:1;"
         offset="1"
         id="stop5735" /></linearGradient><linearGradient
       inkscape:collect="always"
       id="linearGradient4901"><stop
         style="stop-color:#65ead5;stop-opacity:1;"
         offset="0"
         id="stop4897" /><stop
         style="stop-color:#d6f7f7;stop-opacity:1;"
         offset="1"
         id="stop4899" /></linearGradient><linearGradient
       inkscape:collect="always"
       id="linearGradient960"><stop
         style="stop-color:#50a3ae;stop-opacity:1;"
         offset="0"
         id="stop956" /><stop
         style="stop-color:#9cece5;stop-opacity:1;"
         offset="1"
         id="stop958" /></linearGradient><linearGradient
       inkscape:collect="always"
       xlink:href="#linearGradient960"
       id="linearGradient962"
       x1="68.406548"
       y1="114.15768"
       x2="93.144997"
       y2="114.15768"
       gradientUnits="userSpaceOnUse" /><linearGradient
       inkscape:collect="always"
       xlink:href="#linearGradient4901"
       id="linearGradient4903"
       x1="120.26471"
       y1="165.5838"
       x2="142.52847"
       y2="165.5838"
       gradientUnits="userSpaceOnUse" /><linearGradient
       inkscape:collect="always"
       xlink:href="#linearGradient5737"
       id="linearGradient5739"
       x1="66.325424"
       y1="127.70447"
       x2="144.88332"
       y2="127.70447"
       gradientUnits="userSpaceOnUse" /><linearGradient
       inkscape:collect="always"
       xlink:href="#linearGradient7058"
       id="linearGradient5741"
       x1="68.40638"
       y1="150.38042"
       x2="148.5433"
       y2="150.38042"
       gradientUnits="userSpaceOnUse" /><linearGradient
       inkscape:collect="always"
       xlink:href="#linearGradient12252"
       id="linearGradient12254"
       x1="80.158981"
       y1="197.00471"
       x2="130.72076"
       y2="197.00471"
       gradientUnits="userSpaceOnUse"
       gradientTransform="translate(-19.961331,16.604237)" /><linearGradient
       inkscape:collect="always"
       xlink:href="#linearGradient16686"
       id="linearGradient16688"
       x1="101.61609"
       y1="130.35045"
       x2="101.61609"
       y2="152.1313"
       gradientUnits="userSpaceOnUse"
       gradientTransform="translate(63.065125,-8.0724859)" /><linearGradient
       inkscape:collect="always"
       xlink:href="#linearGradient17335"
       id="linearGradient17337"
       x1="100.80637"
       y1="81.00473"
       x2="100.64364"
       y2="121.51553"
       gradientUnits="userSpaceOnUse"
       gradientTransform="translate(-54.095209,28.188713)" /></defs><g
     inkscape:label="Layer 1"
     inkscape:groupmode="layer"
     id="layer1"
     transform="translate(464.99067,-395.70569)"><g
       id="g13042"
       transform="translate(-464.58755,-348.48937)"><rect
         style="fill:#15141c;fill-opacity:1;stroke:none;stroke-width:0.98047;stroke-linecap:round;stroke-dasharray:none;stroke-opacity:1"
         id="rect11873"
         width="96.943054"
         height="150"
         x="37.626705"
         y="85.575729" /><g
         id="g11931"
         transform="matrix(0.82819471,0,0,0.82819471,-3.332391,32.528914)"><path
           id="path304"
           style="fill:url(#linearGradient962);fill-opacity:1;stroke:none;stroke-width:1.265;stroke-dasharray:none;stroke-opacity:1"
           d="m 69.351268,140.51479 c -0.0727,-0.18934 0.007,-0.31591 0.17708,-0.28128 0.17005,0.0346 0.3146,-0.0858 0.32121,-0.26775 0.007,-0.18191 0.13109,-0.33623 0.27661,-0.34294 0.42897,-0.0198 3.77371,-3.43224 18.18569,-18.55371 l 4.69194,-4.92292 0.0706,-14.71397 0.0706,-14.713958 -4.36563,-0.06265 c -8.5266,-0.122359 -10.25118,0.06362 -13.13407,1.416423 -2.9815,1.399077 -5.23739,4.013032 -6.54839,7.587768 -0.54233,1.478779 -0.55521,1.949121 -0.63095,23.035297 -0.0618,17.21859 -0.009,21.60961 0.26232,21.94506 0.25971,0.32067 0.26181,0.3726 0.009,0.22066 -0.22483,-0.13507 -0.33073,-0.0111 -0.33073,0.3871 0,0.57241 0.0123,0.57466 0.5385,0.0985 0.29617,-0.26803 0.47905,-0.64224 0.40639,-0.83158 z" /><path
           id="path376"
           style="fill:url(#linearGradient5739);fill-opacity:1;stroke:none;stroke-width:1.265;stroke-dasharray:none;stroke-opacity:1"
           d="m 69.952048,168.36395 c 0.3991,-0.20639 1.79217,-1.48964 3.09571,-2.85168 11.76118,-12.28899 24.23159,-25.16565 31.722952,-32.75641 13.11391,-13.28792 21.63488,-21.96348 27.02635,-27.51667 2.61373,-2.69212 6.42983,-6.621189 8.48021,-8.731247 4.68847,-4.824905 5.12444,-5.625872 4.22887,-7.76928 -0.89165,-2.134014 -3.3091,-2.682896 -5.4768,-1.243505 -0.64341,0.427236 -2.59652,2.242937 -4.34023,4.034895 -1.74371,1.791958 -9.00653,9.152127 -16.13958,16.355917 -14.71594,14.86189 -32.473692,33.01807 -40.882742,41.80003 -3.12869,3.26745 -6.60828,6.8968 -7.73242,8.06523 -2.48466,2.58257 -3.38583,4.14802 -3.57242,6.2058 -0.16034,1.7682 0.20637,3.11162 1.11782,4.09509 0.71719,0.77386 1.40986,0.86123 2.47228,0.31183 z" /><path
           id="path374"
           style="fill:url(#linearGradient5741);fill-opacity:1;stroke:none;stroke-width:1.265;stroke-dasharray:none;stroke-opacity:1"
           d="m 72.864518,192.43996 c 0.40023,-0.20696 4.6416,-4.46345 9.42524,-9.45885 10.51036,-10.97561 14.01068,-14.5665 34.257642,-35.144 32.36522,-32.89362 31.15048,-31.61341 31.7658,-33.47787 0.17613,-0.53367 0.27179,-1.73115 0.21257,-2.66107 -0.11853,-1.86159 -0.68465,-2.90446 -1.90019,-3.50045 -1.39475,-0.68386 -2.03557,-0.17537 -9.19569,7.2967 -3.72879,3.89124 -8.84848,9.2341 -11.37709,11.87302 -2.5286,2.63892 -8.45886,8.77064 -13.17834,13.62604 -4.71948,4.8554 -12.21866,12.57847 -16.664842,17.16238 -4.44618,4.5839 -10.58955,10.89422 -13.65193,14.02291 -13.41116,13.70155 -14.15131,14.58229 -14.15131,16.83926 0,1.24564 0.88696,3.10513 1.65878,3.47761 0.83803,0.40443 1.95248,0.38227 2.79936,-0.0557 z" /><path
           id="path372"
           style="fill:url(#linearGradient4903);fill-opacity:1;stroke:none;stroke-width:1.265;stroke-dasharray:none;stroke-opacity:1"
           d="m 132.78899,193.49696 c 2.66267,-0.76646 4.43509,-1.76867 6.04294,-3.41694 1.75143,-1.79547 2.43451,-3.05836 3.04442,-5.62867 0.37764,-1.59141 0.44613,-4.70545 0.54218,-24.64897 l 0.10995,-22.82743 -4.58345,4.84303 c -2.5209,2.66367 -5.71454,6.08503 -7.09699,7.60301 -1.38245,1.51799 -4.03134,4.37851 -5.88643,6.35673 -1.85509,1.97822 -3.67079,4.00054 -4.0349,4.49406 l -0.662,0.8973 v 16.51179 16.51179 l 5.4901,-0.12561 c 4.04183,-0.0925 5.89743,-0.24286 7.03418,-0.57009 z" /></g><text
         xml:space="preserve"
         style="font-size:12.3472px;font-family:Montserrat;-inkscape-font-specification:Montserrat;text-align:center;letter-spacing:3.048px;text-anchor:middle;fill:url(#linearGradient12254);fill-opacity:1;stroke:none;stroke-width:1.265;stroke-linecap:round;stroke-dasharray:none;stroke-opacity:1"
         x="85.163704"
         y="216.73277"
         id="text11987"><tspan
           sodipodi:role="line"
           id="tspan11985"
           style="font-weight:bold;fill:url(#linearGradient12254);fill-opacity:1;stroke-width:1.265"
           x="86.687706"
           y="216.73277">KAPTURE</tspan></text></g><g
       id="g18664"
       inkscape:export-filename="kapture-logo-2.png"
       inkscape:export-xdpi="96"
       inkscape:export-ydpi="96"
       transform="matrix(5.962224,0,0,5.962224,-607.74476,-255.33012)"><g
         id="g1"><path
           id="path16033"
           style="color:#000000;fill:url(#linearGradient17337);fill-opacity:1;stroke-width:0.560854;stroke-linecap:round;-inkscape-stroke:none"
           d="m 32.809064,109.19345 c -3.310751,1.71174 -6.390106,4.95291 -7.89032,8.66214 -1.702984,4.21058 -1.416477,8.98374 2.792218,12.94666 a 0.28042723,0.28042723 0 0 1 0.0026,0.003 0.28042723,0.28042723 0 0 1 0.004,0.003 l 18.830874,18.8311 v 0.0649 l 0.0325,-0.0325 0.0325,0.0325 v -0.0649 l 18.83081,-18.8311 a 0.28042723,0.28042723 0 0 1 0.004,-0.003 0.28042723,0.28042723 0 0 1 0.003,-0.003 c 4.20869,-3.96291 4.4952,-8.73607 2.79222,-12.94665 -1.50022,-3.70923 -4.57957,-6.9504 -7.89032,-8.66214 3.0643,3.2563 4.85981,6.61631 5.00072,10.10259 0.15632,3.8677 -1.73565,7.83813 -6.05309,11.90617 a 0.28042723,0.28042723 0 0 1 -0.002,0.002 l -0.81669,0.81678 -11.90127,-11.90125 -11.901275,11.90125 -0.816739,-0.81674 a 0.28042723,0.28042723 0 0 1 -0.0015,-0.002 c -4.317286,-4.06805 -6.209259,-8.03848 -6.052938,-11.90617 0.140905,-3.48629 1.936419,-6.8463 5.000719,-10.1026 z m 13.771832,16.66172 c 0.0982,0.10151 0.19644,0.20432 0.29476,0.30866 a 0.28042786,0.28042722 0 0 1 0.002,0.002 l 8.73024,8.72994 -9.02703,9.02733 -9.027031,-9.02733 8.730251,-8.72994 a 0.28042786,0.28042722 0 0 1 0.002,-0.002 c 0.0983,-0.10434 0.19655,-0.20715 0.29475,-0.30866 z" /><text
           xml:space="preserve"
           style="font-size:20.143px;font-family:Montserrat;-inkscape-font-specification:Montserrat;text-align:center;letter-spacing:9.12478px;text-anchor:middle;fill:url(#linearGradient16688);fill-opacity:1;stroke:none;stroke-width:1.63138;stroke-linecap:round;stroke-dasharray:none;stroke-opacity:1"
           x="164.25591"
           y="136.37804"
           id="text16104"><tspan
             sodipodi:role="line"
             id="tspan16102"
             style="font-weight:bold;fill:url(#linearGradient16688);fill-opacity:1;stroke:none;stroke-width:1.63138"
             x="168.8183"
             y="136.37804">KAPTURE</tspan></text></g></g></g></svg>
